simulation
nRows=50
nColumns=15
endheader
time  TH_x TH_y TH_z SC_y  SC_z  SC_x  AC_y  AC_z  AC_x  GH_y  GH_z  GH_yy  EL_x  PS_y
0.000000  0.000000  0.000000  0.000000  -33.155102  -0.337486  1.785483  46.971923  8.552420  -4.245213  -3.392173  0.766133  19.233047  22.084247  115.200896
0.000312  0.000000  0.000000  0.000000  -33.155102  -0.337486  -8.214517  45.476398  15.782334  2.827670  -3.392173  0.766133  19.233047  22.084247  115.200896
0.000624  0.000000  0.000000  0.000000  -25.523519  8.825822  -8.214517  48.609222  -7.340759  9.491432  3.607511  1.325753  21.543226  21.283539  119.636283
0.000936  0.000000  0.000000  0.000000  -25.398413  19.640900  -8.214517  41.304089  -4.974745  6.720927  5.997139  5.610502  15.361041  22.586630  123.777227
0.001248  0.000000  0.000000  0.000000  -15.039768  -3.081826  -8.214517  54.506686  3.575897  4.474169  5.328142  9.520244  13.042509  12.512127  125.197593
0.001560  0.000000  0.000000  0.000000  -16.209461  14.014333  -8.214517  42.286154  2.615529  3.419020  -11.297805  0.659084  16.378404  24.040637  112.587292
0.001872  0.000000  0.000000  0.000000  -24.298787  12.176149  -8.214517  47.344922  -0.286937  8.929685  -12.412285  1.560678  16.653089  24.511935  121.144307
0.002184  0.000000  0.000000  0.000000  -23.682464  11.937559  -8.214517  46.082056  -0.251365  5.413930  -4.603925  -9.147023  20.681531  17.712661  105.452892
0.002496  0.000000  0.000000  0.000000  -16.767885  10.065621  -8.214517  42.552164  -6.974841  1.642439  -12.695733  -4.203829  19.302174  19.560791  123.329564
0.002808  0.000000  0.000000  0.000000  -24.936989  19.204643  -8.214517  36.668063  -6.264519  -3.101735  -0.069788  -5.235479  21.003823  17.533691  117.036348
0.003120  0.000000  0.000000  0.000000  -40.118720  7.808150  -8.214517  53.404406  4.033879  10.820024  -12.551979  -4.830979  12.650295  19.794732  107.872995
0.003432  0.000000  0.000000  0.000000  -17.732542  17.654288  -8.214517  45.740203  12.325607  10.149477  -2.356087  1.806318  23.806018  25.318962  120.607617
0.003744  0.000000  0.000000  0.000000  -16.290899  13.751019  -8.214517  37.683082  -7.535052  -2.603005  -8.253345  8.284205  16.199525  22.750473  121.231819
0.004056  0.000000  0.000000  0.000000  -16.601398  -0.972934  -8.214517  55.109341  4.419724  5.683920  -12.485475  -3.198362  19.606753  18.412467  119.041666
0.004368  0.000000  0.000000  0.000000  -17.077501  10.071094  -8.214517  51.899882  5.280905  10.186057  -9.658573  -5.122306  21.041960  29.476985  108.954235
0.004680  0.000000  0.000000  0.000000  -33.155102  -0.337486  -2.214517  46.487838  11.465524  -1.461377  -3.392173  0.766133  19.233047  22.084247  115.200896
0.004992  0.000000  0.000000  0.000000  -51.028125  17.019956  -2.214517  50.778952  0.783082  7.704677  0.285932  -5.957222  12.441174  24.102951  109.617862
0.005304  0.000000  0.000000  0.000000  -19.369189  14.572388  -2.214517  43.893797  -10.178345  2.988070  -3.090386  -8.794318  17.317941  20.839637  120.427910
0.005616  0.000000  0.000000  0.000000  -15.291348  13.133084  -2.214517  41.060701  -5.538366  -2.681984  -0.098759  5.855735  11.486778  20.730811  120.229209
0.005928  0.000000  0.000000  0.000000  -37.160200  13.323521  -2.214517  41.957151  -9.727144  -0.689154  -11.330758  -0.647923  15.757605  28.692584  111.448455
0.006240  0.000000  0.000000  0.000000  -15.632355  11.533447  -2.214517  45.970738  1.856968  3.778690  6.370728  4.526356  24.271310  18.402619  108.781515
0.006552  0.000000  0.000000  0.000000  -22.090565  1.525229  -2.214517  53.513503  -0.144879  4.580747  -6.239764  -5.408183  9.380898  22.643774  110.593453
0.006864  0.000000  0.000000  0.000000  -36.707764  14.226405  -2.214517  48.029348  -11.836645  4.568864  1.629016  -4.090871  20.661736  29.147461  119.322232
0.007176  0.000000  0.000000  0.000000  -33.591231  3.215419  -2.214517  54.528458  -2.007284  6.392187  -2.594216  -5.452767  27.129042  17.948083  105.680601
0.007488  0.000000  0.000000  0.000000  -43.755859  11.473087  -2.214517  48.458605  -7.460270  5.681068  -12.448914  -7.350980  15.932112  12.840267  110.795177
0.007800  0.000000  0.000000  0.000000  -18.220906  10.055695  -2.214517  49.290375  1.516308  6.257001  -11.501437  1.349685  11.546091  23.906595  106.384752
0.008112  0.000000  0.000000  0.000000  -33.155102  -0.337486  3.785483  47.159048  7.088083  -5.620288  -3.392173  0.766133  19.233047  22.084247  115.200896
0.008424  0.000000  0.000000  0.000000  -52.308940  11.477137  3.785483  52.471085  -8.319017  2.304234  -7.324373  -0.884420  18.700023  19.185166  120.233007
0.008736  0.000000  0.000000  0.000000  -21.383971  13.853122  3.785483  39.117960  -16.364966  -9.694672  3.533142  -1.566500  26.285311  21.665436  113.819773
0.009048  0.000000  0.000000  0.000000  -20.600131  19.619508  3.785483  44.245119  -1.628033  3.951359  -0.487438  3.755031  26.465328  12.217164  117.372255
0.009360  0.000000  0.000000  0.000000  -16.388810  2.792695  3.785483  51.135589  -14.662575  1.751070  -0.508820  -1.016030  29.044898  14.044193  109.903546
0.009672  0.000000  0.000000  0.000000  -24.904190  18.284551  3.785483  43.736645  -4.182668  0.952414  1.369726  -8.666657  15.855094  28.017673  108.525404
0.009984  0.000000  0.000000  0.000000  -29.663845  1.125180  3.785483  55.994254  -3.396259  3.256514  -1.122670  1.496338  17.565317  14.995144  123.497478
0.010296  0.000000  0.000000  0.000000  -33.531482  17.742220  3.785483  40.543639  -12.858350  -5.911336  -11.893808  5.415185  20.629156  14.768463  110.409369
0.010608  0.000000  0.000000  0.000000  -15.829981  5.304618  3.785483  56.406075  6.924586  1.607700  2.280958  2.949328  10.043835  15.349238  109.871795
0.010920  0.000000  0.000000  0.000000  -14.209164  12.833905  3.785483  49.408336  1.596452  3.207885  -6.506522  -3.667350  19.935031  31.806033  120.696612
0.011232  0.000000  0.000000  0.000000  -35.302826  15.846202  3.785483  46.647182  -10.735490  0.789067  6.570066  3.919127  11.859437  31.302562  119.495984
0.011544  0.000000  0.000000  0.000000  -17.600183  13.753920  3.785483  47.772184  -8.063825  0.819511  2.371507  -1.843746  13.702848  14.794730  114.417746
0.011856  0.000000  0.000000  0.000000  -43.081121  11.471559  3.785483  46.162860  -14.027424  -4.497509  -4.579429  -6.450794  19.161661  24.522386  110.167167
0.012168  0.000000  0.000000  0.000000  -13.630044  -0.627524  3.785483  54.866941  -0.621738  -1.506751  -12.533723  5.293692  18.763148  24.694139  114.243616
0.012480  0.000000  0.000000  0.000000  -31.545912  15.948018  3.785483  42.083826  -13.642594  -4.549340  6.506979  7.940366  25.294893  25.365590  119.025308
0.012793  0.000000  0.000000  0.000000  -15.076031  10.821565  3.785483  46.789649  -0.437979  1.110805  -5.573359  -4.365838  12.851813  24.269715  108.280375
0.013105  0.000000  0.000000  0.000000  -30.616545  4.272690  3.785483  56.670098  3.335131  3.764179  0.604627  -6.108680  27.076285  15.372497  110.561462
0.013417  0.000000  0.000000  0.000000  -20.149757  8.653733  3.785483  50.090635  -5.275613  2.152139  5.123934  -3.176984  20.061769  17.981160  105.689299
0.013729  0.000000  0.000000  0.000000  -18.111146  6.258458  3.785483  53.020074  1.310435  2.654629  3.434348  -5.834249  23.143384  14.001139  106.554926
0.014041  0.000000  0.000000  0.000000  -36.623804  8.960970  3.785483  45.384350  -17.749837  -4.901442  2.495535  1.937923  12.218802  14.841556  105.984122
0.014353  0.000000  0.000000  0.000000  -36.254460  7.327794  3.785483  43.850979  -15.156738  -5.801821  -3.195847  3.766884  18.031635  25.443715  107.533030
0.014665  0.000000  0.000000  0.000000  -33.155102  -0.337486  9.785483  47.506632  2.674404  -9.700516  -3.392173  0.766133  19.233047  22.084247  115.200896
0.014977  0.000000  0.000000  0.000000  -13.490181  7.506482  9.785483  37.651519  -17.372709  -15.010316  4.744960  -7.072774  11.002721  24.679563  116.428695
0.015289  0.000000  0.000000  0.000000  -38.139151  7.110443  9.785483  48.795987  -19.918628  -3.449305  -10.483831  0.017837  10.258139  15.846870  123.430651
